<svg xmlns="http://www.w3.org/2000/svg" viewBox="0 0 220 220" fill="none">
  <rect width="220" height="220" rx="110" fill="#FFEDEE"/>
  <rect x="50" y="92" width="120" height="90" rx="16" fill="#FFD1A8"/>
  <rect x="50" y="92" width="120" height="20" rx="10" fill="#FFB67F"/>
  <rect x="102" y="92" width="16" height="90" fill="#FF7F6B"/>
  <rect x="44" y="86" width="132" height="18" rx="9" fill="#FF8E7D"/>
  <path d="M110 92c-4-18-26-29-38-20-9 7-6 22 13 24 10 1 17 0 25-4Z" fill="#8ADDD1"/>
  <path d="M110 92c4-18 26-29 38-20 9 7 6 22-13 24-10 1-17 0-25-4Z" fill="#8ADDD1"/>
  <circle cx="88" cy="132" r="5" fill="#5B3B2A"/>
  <circle cx="132" cy="132" r="5" fill="#5B3B2A"/>
  <path d="M90 152c11 10 30 10 40 0" stroke="#5B3B2A" stroke-width="4" stroke-linecap="round"/>
  <ellipse cx="75" cy="144" rx="8" ry="5" fill="#FFB5B5"/>
  <ellipse cx="145" cy="144" rx="8" ry="5" fill="#FFB5B5"/>
</svg>
