<svg xmlns="http://www.w3.org/2000/svg" viewBox="0 0 220 220" fill="none">
  <rect width="220" height="220" rx="110" fill="#E9FBF6"/>
  <rect x="107" y="20" width="6" height="32" rx="3" fill="#4A7C78"/>
  <rect x="88" y="48" width="44" height="16" rx="8" fill="#5CA8A1"/>
  <rect x="64" y="64" width="92" height="96" rx="30" fill="#FFD783"/>
  <rect x="74" y="74" width="72" height="76" rx="24" fill="#FFF2C8"/>
  <rect x="88" y="154" width="44" height="18" rx="9" fill="#5CA8A1"/>
  <circle cx="96" cy="106" r="5" fill="#5B3B2A"/>
  <circle cx="124" cy="106" r="5" fill="#5B3B2A"/>
  <path d="M95 126c6 7 23 7 30 0" stroke="#5B3B2A" stroke-width="4" stroke-linecap="round"/>
  <ellipse cx="84" cy="120" rx="7" ry="5" fill="#FFB7AF"/>
  <ellipse cx="136" cy="120" rx="7" ry="5" fill="#FFB7AF"/>
  <path d="m44 85 7 4 8-2-2 8 4 7-8 1-5 6-3-8-8-3 6-6 1-8Z" fill="#FF9E74"/>
  <path d="m172 88 6 4 7-2-2 7 4 7-8 1-5 6-2-8-8-3 6-6 2-6Z" fill="#8EDCCF"/>
</svg>
