<svg xmlns="http://www.w3.org/2000/svg" viewBox="0 0 220 220" fill="none">
  <rect width="220" height="220" rx="110" fill="#FFF6E3"/>
  <path d="M133 36c-33 0-60 27-60 60s27 60 60 60c14 0 27-5 38-13-14 20-36 33-63 33-42 0-76-34-76-76s34-76 76-76c22 0 43 10 57 25-9-8-20-13-32-13Z" fill="#FFD76D"/>
  <circle cx="94" cy="96" r="5" fill="#5B3B2A"/>
  <circle cx="116" cy="104" r="5" fill="#5B3B2A"/>
  <path d="M90 122c7 8 20 8 27-1" stroke="#5B3B2A" stroke-width="4" stroke-linecap="round"/>
  <ellipse cx="83" cy="110" rx="8" ry="5" fill="#FFB5B5"/>
  <ellipse cx="126" cy="116" rx="8" ry="5" fill="#FFB5B5"/>
  <path d="m166 50 5 10 11 1-8 7 2 11-10-6-10 6 2-11-8-7 11-1 5-10Z" fill="#FFAA6E"/>
  <path d="m52 46 4 8 8 1-6 6 2 9-8-5-8 5 2-9-6-6 8-1 4-8Z" fill="#8ADDD1"/>
</svg>
